<?xml version="1.0" encoding="utf-8"?>
<!-- Generator: Adobe Illustrator 23.0.2, SVG Export Plug-In . SVG Version: 6.00 Build 0)  -->
<svg version="1.1" id="svg" xmlns="http://www.w3.org/2000/svg" xmlns:xlink="http://www.w3.org/1999/xlink" x="0px" y="0px"
	 viewBox="0 0 400 400" style="enable-background:new 0 0 400 400;" xml:space="preserve">
<style type="text/css">
	.st0{fill-rule:evenodd;clip-rule:evenodd;}
</style>
<g id="svgg">
	<path style="fill:#ffffff;" id="path8" class="st0" d="M66.5,200v175H200h133.5V241.7V108.4l-41.7-41.7L250.1,25h-91.8H66.5V200 M281.4,77.3l39.5,39.5
		h-39.6h-39.6V77.3c0-21.7,0-39.5,0.1-39.5C241.8,37.8,259.6,55.5,281.4,77.3 M146.9,192.3c14.4,1.6,23.3,12,23.2,27.4
		c0,9.9-3.7,17.4-10.7,21.9c-5.3,3.4-9.3,4.2-20.5,4.2h-7.2v14.6V275h-8.4H115v-41.5V192l14.8,0C138.1,192,145.6,192.1,146.9,192.3
		 M210.2,192.6c14.4,2.8,23.3,13.4,24.9,29.5c0.5,5.1,0.2,23.4-0.5,26.9c-2.7,14.7-12.1,23.8-26.2,25.7c-2.2,0.3-5.6,0.4-14.8,0.4
		h-12v-41.5V192l13.3,0.1C205.7,192.2,208.5,192.3,210.2,192.6 M293.3,199v7h-14.6H264v10.6v10.6h13h13v7v7h-13h-13v16.9V275h-8.4
		h-8.4v-41.5V192h23h23V199 M131.8,218.9v12.9l7.3-0.1l7.3-0.1l1.4-0.7c7.8-3.8,7.2-20.4-0.7-24.1c-1.4-0.7-1.4-0.7-8.4-0.8
		l-6.9-0.1V218.9 M198.2,206.2c-0.1,0.1-0.2,12.5-0.2,27.5V261h4c10.4,0,14.1-2.9,15.9-12.4c0.6-3.4,0.6-26.6,0-30.1
		c-1.5-7.8-4.2-11-10.7-12.1C205.3,206,198.5,205.9,198.2,206.2 M0,0 M0,0 M0,0 M0,0 M0,0 M0,0 M0,0"/>
</g>
</svg>
